<svg version="1.1"
    width="80" height="120"
    viewBox="0 0 80 120"
    xmlns="http://www.w3.org/2000/svg">

    <clipPath id="backing">
        <path fill="#efefef" stroke-width="0"
            d="M75,0
            A 5,5 0,0,1 80,5 
            V 115
            A 5,5 0,0,1 75,120
            H 5
            A 5,5 0,0,1 0,115
            V 5
            A 5,5 0,0,1 5,0" />
    </clipPath>
    <path fill="#efefef" stroke-width="0"
        d="M75,0
            A 5,5 0,0,1 80,5 
            V 115
            A 5,5 0,0,1 75,120
            H 5
            A 5,5 0,0,1 0,115
            V 5
            A 5,5 0,0,1 5,0" />
    <path clip-path="url(#backing)" fill="#36A" fill-rule="evenodd"
        d="
            M 0,0 V 120 h 10 V 0 Z
            M 20,0 V 120 h 10 V 0 Z
            M 40,0 V 120 h 10 V 0 Z
            M 60,0 V 120 h 10 V 0 Z
            
            M 0,0 H 80 v 10 H 0 Z
            M 0,20 H 80 v 10 H 0 Z
            M 0,40 H 80 v 10 H 0 Z
            M 0,60 H 80 v 10 H 0 Z
            M 0,80 H 80 v 10 H 0 Z
            M 0,100 H 80 v 10 H 0 Z
        " />
</svg>